# xmcd
#
# Track frame offsets:
#	150
#	11419
#	26282
#	39992
#	57325
#	72435
#	87256
#	105906
#	127788
#	140946
#	151054
#	162101
#	173943
#	184060
#	191371
#
# Disc length: 2732 seconds
#
# Revision: 0
# Processed by: cddbd v1.5.2PL0 Copyright (c) Steve Scherf et al.
# Submitted via: EasyCDDAExtractor 10.0.3.1
#
DISCID=b50aaa0f
DTITLE=Various Artist - Dr Boogie - Strong Medicine
DYEAR=1900
DGENRE=
TTITLE0=Canned Heat - Cherokee Dance (Landers)
TTITLE1=Katie Webster - Whoo Wee Sweet Daddy (K. Webster)
TTITLE2=Johnny J. and The Hitmen - Big All Over (Johnny J.)
TTITLE3=Will "Smokey" Logg - Tom Cat (W. "Smokey" Logg)
TTITLE4=Brady Siegel - Shake your moneymaker (Elmore James)
TTITLE5=Marc Benno - Hall Street Jive (Marc and Irvin Benno)
TTITLE6=The Jelly Roll Kings - Have mercy baby (Billy Ward)
TTITLE7=Bobby Radcliff - Dresses too short (Johnson)
TTITLE8=Evan Johns and The H. Bombs - Dance Frannie Dance (Floyd Dakil)
TTITLE9=Screamin' Joe Neal - Rock'n Roll Deacon (unknown)
TTITLE10=Cowboy Bobby - Cap gun cowboy (unknown)
TTITLE11=Brown Sugar Blues Band - I know my baybe been cheatin (L. Jones)
TTITLE12=Silverstone Steeve - Yarbird Blues (Elmore James)
TTITLE13=Fred Wolff Combo (alias Cub Koda) - Somebody else was sucking my dick
TTITLE13=last night (Cub Koda)
TTITLE14=Medicine Head - Do it now (J. Fiddler - P. Hope - Evans)
EXTD=
EXTT0=
EXTT1=
EXTT2=
EXTT3=
EXTT4=
EXTT5=
EXTT6=
EXTT7=
EXTT8=
EXTT9=
EXTT10=
EXTT11=
EXTT12=
EXTT13=
EXTT14=
PLAYORDER=
